<?xml version="1.0" encoding="UTF-8"?>
<svg version="1.1" xmlns="http://www.w3.org/2000/svg" width="1254" height="1254">
<path d="M0 0 C413.82 0 827.64 0 1254 0 C1254 413.82 1254 827.64 1254 1254 C840.18 1254 426.36 1254 0 1254 C0 840.18 0 426.36 0 0 Z " fill="#DD0F1D" transform="translate(0,0)"/>
<path d="M0 0 C274.1519503 0 274.1519503 0 316.25 40.75 C334.91513238 59.50935467 345.10722017 87.65325364 345.1328125 113.89453125 C345.13410156 115.18037109 345.13539063 116.46621094 345.13671875 117.79101562 C345.13462402 118.45270752 345.1325293 119.11439941 345.13037109 119.79614258 C345.1250412 121.79703178 345.13083667 123.79794047 345.13671875 125.79882812 C345.11749571 145.03148018 345.11749571 145.03148018 342 152 C341.7525 153.11375 341.505 154.2275 341.25 155.375 C337.32680183 171.49356612 328.93107027 185.67388055 318 198 C317.07960938 199.04607422 317.07960938 199.04607422 316.140625 200.11328125 C306.79688892 210.07594002 294.59168724 217.81215614 282 223 C281.01 223 280.02 223 279 223 C279 223.66 279 224.32 279 225 C279.60295898 225.16363037 280.20591797 225.32726074 280.82714844 225.49584961 C309.02329671 233.50179414 334.12600017 251.51036684 348.64575195 277.16064453 C358.17262872 294.73124337 361.12927509 312.21169087 361.25 332.0625 C361.25942627 333.23393555 361.26885254 334.40537109 361.27856445 335.61230469 C361.17951127 362.29312192 351.75430761 389.84005148 334 410 C333.32453125 410.81855469 332.6490625 411.63710938 331.953125 412.48046875 C312.05877332 435.89626589 280.53354724 449.27671628 251 455 C249.9589209 455.20206055 248.9178418 455.40412109 247.84521484 455.61230469 C244.37847739 456.27643838 240.90846577 456.92085685 237.4375 457.5625 C236.28958984 457.78357422 235.14167969 458.00464844 233.95898438 458.23242188 C157.24638212 472.29994063 77.99178437 461 0 461 C0 308.87 0 156.74 0 0 Z " fill="#FDFBFB" transform="translate(664,401)"/>
<path d="M0 0 C1.11282005 -0.00265183 2.22564011 -0.00530365 3.37218198 -0.00803584 C7.09770212 -0.01568977 10.82318909 -0.01628651 14.54871655 -0.01688576 C17.24825116 -0.02090294 19.9477827 -0.02530535 22.64731568 -0.03016531 C29.28634627 -0.04120299 35.92537159 -0.04688006 42.56440973 -0.05087419 C50.51960685 -0.05589704 58.47479383 -0.06662657 66.42998493 -0.07735593 C86.56850196 -0.10416058 106.70702379 -0.119235 126.84555343 -0.13269705 C132.30258096 -0.13636967 137.75960822 -0.14037235 143.21663547 -0.14444971 C177.1150148 -0.16971147 211.01339464 -0.19175065 244.91178131 -0.20417786 C252.7603388 -0.20709897 260.60889627 -0.21006655 268.45745373 -0.21308327 C269.43249573 -0.21345418 270.40753773 -0.21382509 271.41212647 -0.21420723 C303.01572489 -0.22635911 334.61926758 -0.25729976 366.22283983 -0.29900479 C398.73548448 -0.34183098 431.24809969 -0.36842364 463.7607733 -0.37365257 C468.3567665 -0.37439296 472.95275964 -0.37530363 477.54875278 -0.37631035 C478.45321861 -0.37650096 479.35768444 -0.37669158 480.28955833 -0.37688797 C494.81818512 -0.38039521 509.34674185 -0.40066346 523.87534295 -0.42710699 C538.49097287 -0.45330692 553.1065222 -0.46095567 567.72217224 -0.4500057 C576.39398341 -0.44404848 585.06552032 -0.4518369 593.73728975 -0.47983653 C599.54411511 -0.49719048 605.35075513 -0.49605421 611.1575848 -0.48046885 C614.45705155 -0.47212201 617.75557879 -0.47406853 621.05506197 -0.4930803 C654.32827081 -0.67296986 682.34624168 7.84038232 706.39568615 31.44951439 C726.87215752 52.23074942 739.03676107 79.91974032 738.92307568 109.2041378 C738.90776928 110.62838154 738.89212153 112.05262165 738.8761549 113.47685814 C738.87053958 114.97999199 738.86627868 116.48313144 738.86329174 117.98627281 C738.85199488 121.88741051 738.82266437 125.78819757 738.7891798 129.68919945 C738.75266204 134.39926726 738.73924532 139.10945423 738.72181988 143.81962395 C738.69301296 150.92566246 738.6354225 158.03093608 738.58318615 165.13701439 C721.09318615 165.13701439 703.60318615 165.13701439 685.58318615 165.13701439 C685.56900646 160.76322533 685.55482677 156.38943626 685.5402174 151.88310814 C685.51489933 148.3531151 685.48466023 144.8232389 685.45114422 141.29331779 C685.41731426 137.59050132 685.39176461 133.8880889 685.38762951 130.18511009 C685.38329008 126.60555768 685.35437289 123.02690809 685.30975437 119.44763947 C685.29081051 117.4457839 685.29608136 115.44374475 685.30213451 113.4418087 C685.0407955 96.67598317 679.09050637 82.13808728 666.95818615 70.32451439 C656.0239721 61.02958745 643.67989656 56.82325197 629.49755192 56.87974548 C628.38410825 56.87623941 627.27066458 56.87273333 626.1234802 56.86912102 C622.37781152 56.85978808 618.63229766 56.86473532 614.88662243 56.86958885 C612.17984804 56.86695744 609.47308169 56.86133237 606.76631176 56.85585821 C600.87355274 56.84555341 594.98082657 56.84271525 589.08805943 56.84477043 C580.32504314 56.84781919 571.56206323 56.83949916 562.79905402 56.82902118 C546.23712262 56.80967152 529.67520359 56.80405258 513.11326222 56.80290706 C500.32272858 56.80198818 487.53219981 56.79787256 474.74166775 56.79150581 C471.060655 56.78971073 467.37964225 56.78793111 463.6986295 56.78615606 C462.78352821 56.78571396 461.86842692 56.78527187 460.92559529 56.78481637 C435.1821761 56.77250641 409.4387586 56.76461539 383.69533634 56.76550293 C382.7245871 56.76553409 381.75383786 56.76556524 380.75367198 56.76559735 C375.8334584 56.76576356 370.91324483 56.76596164 365.99303125 56.76616676 C364.52726212 56.7662266 364.52726212 56.7662266 363.0318815 56.76628764 C361.05578551 56.76636852 359.07968953 56.76645211 357.10359354 56.76653842 C326.36239716 56.76776379 295.6212449 56.75275406 264.88006115 56.7253933 C230.34546787 56.69466896 195.81090359 56.67746104 161.27629578 56.67931974 C157.5933969 56.679469 153.91049803 56.67956641 150.22759914 56.67962837 C148.86735735 56.67966334 148.86735735 56.67966334 147.47963592 56.679699 C132.88884049 56.67976054 118.29808338 56.66699081 103.70729935 56.64976384 C89.0410353 56.63280601 74.37482727 56.63083468 59.70855884 56.64398248 C50.99735309 56.65137084 42.2863176 56.64771714 33.5751299 56.6280978 C27.75213896 56.61609228 21.92927124 56.61869522 16.10628594 56.6330388 C12.79107654 56.64079726 9.47646456 56.64014736 6.16123603 56.6261241 C-15.30276374 56.54135039 -31.59342462 58.75565885 -47.85431385 74.01201439 C-60.07166648 87.24747974 -64.57906763 102.42343865 -64.54824162 119.996768 C-64.55132057 121.63029327 -64.55132057 121.63029327 -64.55446172 123.29681906 C-64.56013263 126.95932652 -64.55867435 130.62179639 -64.55725574 134.28430748 C-64.55983931 136.9313452 -64.56281367 139.57837989 -64.56625915 142.22541636 C-64.57383135 148.7458847 -64.57603181 155.26634484 -64.5765882 161.78681711 C-64.57750259 169.5971592 -64.58417229 177.40749374 -64.59093503 185.21783258 C-64.60698833 204.09270136 -64.61289719 222.96756932 -64.61768377 241.8424437 C-64.62002002 250.77084 -64.62362267 259.69923566 -64.62737915 268.62763146 C-64.640213 299.18942997 -64.65093317 329.75122813 -64.65438175 360.31302929 C-64.65460338 362.23115551 -64.65482517 364.14928173 -64.6550471 366.06740795 C-64.65526774 367.99016079 -64.65548823 369.91291363 -64.65570855 371.83566648 C-64.6561511 375.6930331 -64.65659822 379.55039972 -64.65704823 383.40776634 C-64.65715762 384.36416756 -64.65726701 385.32056877 -64.65737971 386.30595184 C-64.66101152 417.32744512 -64.67693711 448.34891506 -64.70023859 479.37039939 C-64.72482878 512.16748907 -64.73855418 544.9645654 -64.73974967 577.76166457 C-64.73992113 581.36109746 -64.74013655 584.96053034 -64.7403841 588.55996323 C-64.74043987 589.4462461 -64.74049564 590.33252898 -64.7405531 591.24566891 C-64.74170413 605.513469 -64.75273037 619.78124514 -64.76727116 634.04903714 C-64.78162987 648.38589959 -64.78487664 662.72273129 -64.77683118 677.05959896 C-64.77237227 685.57811486 -64.77624601 694.09653158 -64.79206969 702.61503446 C-64.80181309 708.30575197 -64.80064756 713.99639992 -64.79063346 719.68711678 C-64.78523685 722.9291357 -64.7862033 726.1709259 -64.79714218 729.41293643 C-64.80819204 732.90870944 -64.80077578 736.40397849 -64.78875065 739.89973736 C-64.79634584 740.90145606 -64.80394104 741.90317477 -64.81176639 742.93524858 C-64.69643604 758.44203983 -57.27323286 770.83032972 -46.7566576 781.92217064 C-38.48173715 789.75502523 -26.5387923 797.2552777 -14.81852436 797.26581556 C-13.3914061 797.27072385 -13.3914061 797.27072385 -11.93545717 797.2757313 C-10.8860102 797.27424767 -9.83656322 797.27276405 -8.75531483 797.27123547 C-7.63913385 797.2735877 -6.52295287 797.27593993 -5.37294823 797.27836344 C-1.59394073 797.2850753 2.18503255 797.28459456 5.96404552 797.28418541 C8.68528964 797.28693356 11.406531 797.29117002 14.12777328 797.29532689 C20.8473453 797.30466534 27.56691073 797.30857703 34.28648842 797.31084585 C42.3319615 797.31380472 50.3774258 797.3225003 58.42289428 797.33126013 C77.87200645 797.3521192 97.32112016 797.36257687 116.77024091 797.37138974 C125.96909588 797.37559441 135.16795019 797.38081666 144.36680461 797.38607427 C175.84811506 797.40396627 207.32942569 797.41896257 238.81074047 797.42639446 C240.78772885 797.42686922 242.76471722 797.42734511 244.7417056 797.42782212 C245.72212751 797.4280585 246.70254942 797.42829488 247.71268109 797.42853842 C252.68009554 797.42973963 257.64750999 797.43095507 262.61492443 797.4321804 C264.09363045 797.43254063 264.09363045 797.43254063 265.60220931 797.43290813 C297.5649864 797.44080122 329.52772637 797.46423232 361.49048725 797.49673635 C395.27347295 797.53102877 429.05643695 797.55074509 462.83944035 797.5540387 C466.54764208 797.55445625 470.2558438 797.55493581 473.96404552 797.55546188 C475.33366749 797.55564667 475.33366749 797.55564667 476.7309586 797.55583519 C491.43023239 797.55816803 506.12946313 797.5738328 520.82872158 797.59430373 C535.6029754 797.61455272 550.37717746 797.62004343 565.15144259 797.6105331 C573.92970484 797.60531441 582.70779486 797.61121292 591.48603234 797.63306777 C597.35130457 797.64656715 603.21645813 797.64550651 609.08173152 797.63266581 C612.42280501 797.6257632 615.76328097 797.62733281 619.10436821 797.6422259 C622.70819383 797.65729644 626.31115385 797.64770434 629.914958 797.63199902 C630.94567564 797.64222122 631.97639329 797.65244343 633.0383448 797.6629754 C646.73338749 797.53263685 658.33527646 791.24303997 668.27068615 782.07451439 C678.98758057 770.85736996 684.67949181 756.64068625 684.78850842 741.28594017 C684.80335781 739.98252426 684.80335781 739.98252426 684.81850719 738.65277672 C684.84995904 735.79598731 684.87481478 732.93918131 684.8995924 730.08232689 C684.92017603 728.09549605 684.94117287 726.10866945 684.96256542 724.12184715 C685.01764057 718.90393582 685.06711381 713.68598591 685.11541271 708.46800804 C685.17458878 702.20119084 685.24073635 695.93444379 685.3057127 689.66768456 C685.40353895 680.15750418 685.49252035 670.64727787 685.58318615 661.13701439 C703.07318615 661.13701439 720.56318615 661.13701439 738.58318615 661.13701439 C738.70351258 684.28425391 738.70351258 684.28425391 738.72967052 694.22295189 C738.74753825 700.97953506 738.76857546 707.73599517 738.80950451 714.49248314 C738.84232708 719.94548318 738.86008707 725.39835106 738.86781788 730.85144234 C738.87332056 732.922043 738.88406479 734.9926372 738.90037632 737.06318092 C738.98701198 748.52624162 738.69552264 759.02498026 735.58318615 770.13701439 C735.30300388 771.22024231 735.30300388 771.22024231 735.01716137 772.32535362 C727.61175855 799.6750844 708.49538521 824.52530661 684.09881115 838.83623314 C676.47314706 843.11052089 668.65668157 846.76886493 660.39568615 849.63701439 C659.4197047 849.98373192 659.4197047 849.98373192 658.42400646 850.33745384 C642.65885684 855.38621044 625.48702049 854.42169491 609.16619396 854.39098167 C606.4909127 854.39328862 603.81564278 854.39638526 601.14036465 854.40043616 C595.34421908 854.40762427 589.54811085 854.40746225 583.75196362 854.40234184 C575.13260299 854.39474821 566.5132736 854.39865919 557.89391315 854.40475846 C542.4959489 854.41526954 527.09800128 854.4143853 511.70003545 854.40860063 C498.22476392 854.40356333 484.74949847 854.402259 471.27422619 854.40464592 C469.93182986 854.40487508 469.93182986 854.40487508 468.56231442 854.40510886 C464.92921345 854.40573157 461.29611247 854.40636837 457.66301151 854.40702839 C423.60344376 854.4131421 389.54388658 854.40760626 355.48432046 854.39683459 C325.24513461 854.38734386 295.0059656 854.38819314 264.7667799 854.39775658 C230.76826119 854.40847308 196.76975182 854.41270846 162.77123165 854.40653205 C159.14486981 854.40589064 155.51850796 854.40526496 151.89214611 854.40464592 C150.552858 854.40440869 150.552858 854.40440869 149.18651357 854.40416666 C135.72193344 854.40189471 122.25736007 854.40454669 108.79278088 854.40960503 C93.47817083 854.4153298 78.16357998 854.41388053 62.84897232 854.40304354 C54.28503764 854.39718288 45.72114454 854.39677037 37.15721096 854.40433589 C31.42887456 854.40883697 25.70057134 854.40600018 19.97223984 854.39732635 C16.71385495 854.39259239 13.45556808 854.39200655 10.19718313 854.39813831 C-22.67386979 854.45523588 -22.67386979 854.45523588 -38.22931385 849.63701439 C-39.05624744 849.38347191 -39.88318104 849.12992943 -40.73517323 848.86870384 C-54.9712437 844.24252059 -67.95877669 836.71947999 -79.41681385 827.13701439 C-80.26243885 826.45381126 -81.10806385 825.77060814 -81.97931385 825.06670189 C-103.40475411 806.92203217 -116.67924992 779.74298685 -120.41681385 752.13701439 C-120.56531699 748.54420429 -120.55806836 744.95401889 -120.55382824 741.35853481 C-120.55648007 740.26612469 -120.55913189 739.17371457 -120.56186408 738.04820111 C-120.56955626 734.36800383 -120.57011623 730.68783991 -120.570714 727.00763512 C-120.5747287 724.35010127 -120.57913038 721.69257058 -120.58399355 719.03503841 C-120.59505794 712.48430257 -120.60071502 705.93357209 -120.60470243 699.38282856 C-120.60971555 691.53643594 -120.6204439 683.69005369 -120.63118417 675.8436672 C-120.65680704 656.87473007 -120.67185013 637.90578891 -120.68469463 618.93683945 C-120.6889508 612.65131721 -120.69351657 606.36579527 -120.69827795 600.08027339 C-120.72354389 566.64049557 -120.74558608 533.20071724 -120.7580061 499.76093197 C-120.7609273 492.01381554 -120.76389485 484.26669914 -120.76691151 476.51958275 C-120.76728242 475.5571243 -120.76765332 474.59466586 -120.76803547 473.603042 C-120.7801812 442.42320682 -120.81110879 411.24342822 -120.85283303 380.06361959 C-120.89567061 347.99316295 -120.92225359 315.92273617 -120.92748081 283.85225015 C-120.9282212 279.31727283 -120.92913187 274.78229554 -120.93013859 270.24731827 C-120.9303292 269.35484964 -120.93051982 268.46238101 -120.93071621 267.54286788 C-120.93422235 253.21154039 -120.95448609 238.880284 -120.98093523 224.54898257 C-121.00715169 210.12550528 -121.01477706 195.70210967 -121.00383393 181.27861197 C-120.99788166 172.72277312 -121.00563857 164.16721243 -121.03366477 155.61141598 C-121.05104246 149.87920028 -121.04986285 144.14717214 -121.03429708 138.41495199 C-121.02596499 135.15975842 -121.02785833 131.90518975 -121.04690854 128.65002663 C-121.16807433 106.58056036 -118.70772713 85.91980704 -108.41681385 66.13701439 C-108.1140453 65.54130638 -107.81127674 64.94559837 -107.49933338 64.33183861 C-92.90519994 35.97023783 -67.70205168 15.01480277 -37.41681385 5.13701439 C-24.93157423 1.35306757 -13.02489082 -0.01529234 0 0 Z " fill="#FDFBFB" transform="translate(322.41681385040283,199.8629856109619)"/>
<path d="M0 0 C413.82 0 827.64 0 1254 0 C1254 413.82 1254 827.64 1254 1254 C840.18 1254 426.36 1254 0 1254 C0 840.18 0 426.36 0 0 Z M158.875 26.3125 C157.75939697 26.70002441 156.64379395 27.08754883 155.49438477 27.48681641 C134.89529644 34.79496803 116.05002305 45.28942974 99 59 C98.01386719 59.78246094 97.02773437 60.56492188 96.01171875 61.37109375 C80.37768117 74.03085101 66.52110021 88.51483686 55 105 C54.5251416 105.67321289 54.0502832 106.34642578 53.56103516 107.04003906 C39.65594074 126.97019507 29.64194321 149.08969083 23.25 172.5 C23.06324707 173.17377686 22.87649414 173.84755371 22.68408203 174.54174805 C22.0483047 177.0154531 21.52399021 179.49990789 21 182 C20.62664805 183.71943886 20.62664805 183.71943886 20.24575365 185.47361386 C17.17552624 201.0957846 17.57419215 216.90571088 17.61459734 232.75139832 C17.62227402 237.07894219 17.61240158 241.40645438 17.60486734 245.73399365 C17.59407635 253.30330933 17.59433371 260.87256071 17.60200882 268.44187927 C17.61339117 279.69812745 17.60753694 290.95432173 17.5983839 302.21056959 C17.5826107 322.31880302 17.58394635 342.42700779 17.59262064 362.53524393 C17.60017478 380.13381116 17.60213393 397.73236791 17.5985527 415.33093643 C17.59832355 416.49943214 17.59809439 417.66792784 17.59785829 418.8718325 C17.59692424 423.6154589 17.59596903 428.3590853 17.594979 433.10271169 C17.58580675 477.58101651 17.59411464 522.05930312 17.61026969 566.53760513 C17.6245041 606.0281723 17.62323364 645.51871043 17.60888672 685.00927734 C17.59281174 729.40452206 17.58645918 773.79975068 17.59572351 818.19499791 C17.59668562 822.93047595 17.59762414 827.66595399 17.5985527 832.40143204 C17.59878994 833.56737795 17.59902717 834.73332387 17.59927159 835.93460148 C17.60267961 853.51795809 17.59870133 871.10130305 17.59111404 888.68465805 C17.58252653 908.68540615 17.58470144 928.6861212 17.60095628 948.6868652 C17.60974706 959.87148044 17.61036636 971.05602404 17.59901775 982.24063738 C17.59226578 989.72212369 17.59652192 997.20355285 17.60953206 1004.68503073 C17.6166326 1008.94059202 17.61918391 1013.19601153 17.60831411 1017.45156811 C17.56795809 1034.489327 17.70580594 1051.20649355 21 1068 C21.33882059 1069.73475973 21.33882059 1069.73475973 21.68448603 1071.50456512 C22.232412 1074.13508999 22.8647574 1076.71799855 23.5625 1079.3125 C23.81153076 1080.24852051 24.06056152 1081.18454102 24.31713867 1082.14892578 C34.17217264 1117.34422348 53.92168665 1147.8397126 79 1174 C79.89460938 1174.94746094 80.78921875 1175.89492187 81.7109375 1176.87109375 C92.82329447 1188.35820762 105.45443707 1197.37818434 119.00390625 1205.76269531 C120.78304094 1206.8655151 122.54876876 1207.98989702 124.3125 1209.1171875 C138.71437325 1217.90656603 155.05307266 1223.88949252 171.25 1228.4375 C172.02601563 1228.66002441 172.80203125 1228.88254883 173.6015625 1229.11181641 C193.79755198 1234.41816558 214.29538553 1234.4419107 235.00999686 1234.39780539 C239.3401985 1234.39193892 243.67036188 1234.40358492 248.00055271 1234.41286707 C255.57169054 1234.42671278 263.14276861 1234.42953242 270.71391678 1234.42490768 C281.97333456 1234.41804804 293.2326923 1234.42836824 304.49210174 1234.44186524 C325.77681108 1234.46672561 347.06149525 1234.47129663 368.34621679 1234.46939927 C384.7890174 1234.4680241 401.23180932 1234.47185411 417.67460823 1234.47932434 C420.04026414 1234.4803747 422.40592006 1234.48142231 424.77157598 1234.4824672 C426.533146 1234.48324622 426.533146 1234.48324622 428.3303033 1234.48404097 C429.50688234 1234.48456112 430.68346137 1234.48508126 431.89569432 1234.48561716 C433.07430485 1234.48614115 434.25291538 1234.48666514 435.46724139 1234.48720502 C468.6004293 1234.50178093 501.73361403 1234.51007413 534.86680508 1234.50545502 C536.11492769 1234.50528306 537.3630503 1234.50511111 538.64899481 1234.50493394 C544.97438237 1234.50404511 551.29976992 1234.50310029 557.62515747 1234.50213593 C558.88130525 1234.5019449 560.13745303 1234.50175387 561.43166589 1234.50155704 C563.97190076 1234.50116995 566.51213563 1234.50077962 569.05237049 1234.50038607 C608.56350205 1234.49441831 648.07457501 1234.50984745 687.58569336 1234.54199219 C732.0209615 1234.57811274 776.45619248 1234.59739584 820.89147621 1234.59245348 C825.63466743 1234.59198354 830.37785865 1234.59157327 835.12104988 1234.59120178 C836.28886229 1234.5910994 837.4566747 1234.59099701 838.65987536 1234.59089152 C856.24787603 1234.58969937 873.8358364 1234.60162889 891.42382622 1234.62034607 C911.44148387 1234.64163917 931.4590573 1234.64537588 951.47671878 1234.62604648 C962.66172399 1234.61576345 973.84652339 1234.61907949 985.03150975 1234.64257733 C992.52467064 1234.6569154 1000.01768085 1234.6527158 1007.51083184 1234.63413157 C1011.76571831 1234.62407958 1016.02020728 1234.62137907 1020.27506738 1234.64145225 C1047.13478555 1234.75963603 1073.78636706 1233.21311714 1099 1223 C1099.82226074 1222.67515625 1100.64452148 1222.3503125 1101.49169922 1222.015625 C1150.01054739 1202.69818573 1189.89911188 1167.53964603 1214 1121 C1214.3398291 1120.35160156 1214.6796582 1119.70320313 1215.02978516 1119.03515625 C1228.48678662 1093.03501952 1236.16869423 1063.95317896 1236.13422108 1034.71328545 C1236.13617661 1033.26355273 1236.13856644 1031.81382055 1236.14134905 1030.36408919 C1236.14772705 1026.38065007 1236.14791244 1022.39723117 1236.14707164 1018.41378792 C1236.14724157 1014.07968872 1236.15315261 1009.74559666 1236.1583125 1005.41150105 C1236.16762824 996.81530554 1236.17155882 988.21911518 1236.17383147 979.62291525 C1236.17679624 969.32593864 1236.18549529 959.02896886 1236.19424575 948.73199583 C1236.21508054 923.84327863 1236.22555866 898.95456025 1236.23437535 874.06583637 C1236.23858348 862.28841633 1236.24380526 850.5109968 1236.24905988 838.73357719 C1236.26694976 798.40774808 1236.28194494 758.08191883 1236.28938007 717.75608635 C1236.28985483 715.22484158 1236.29033072 712.6935968 1236.29080774 710.16235203 C1236.29104411 708.90709871 1236.29128049 707.65184539 1236.29152403 706.3585541 C1236.29272521 699.99896445 1236.29394066 693.6393748 1236.29516602 687.27978516 C1236.29552624 685.3866754 1236.29552624 685.3866754 1236.29589374 683.45532101 C1236.30378461 642.54668509 1236.32721223 601.63807819 1236.35972196 560.72945494 C1236.39404049 517.46561836 1236.41373311 474.20179876 1236.41702431 430.93794835 C1236.41744184 426.18598945 1236.4179214 421.43403057 1236.41844749 416.68207169 C1236.41857069 415.51202931 1236.41869388 414.34198694 1236.4188208 413.13648873 C1236.42115035 394.32819672 1236.43679663 375.51993847 1236.45728934 356.71165848 C1236.47757223 337.79540511 1236.48301299 318.87919218 1236.47351871 299.96292995 C1236.46831329 288.73432381 1236.47413584 277.50585257 1236.49605338 266.27726592 C1236.50960731 258.76355865 1236.50844409 251.24994376 1236.49565142 243.73623547 C1236.48878525 239.46369539 1236.48797949 235.19141234 1236.50521151 230.91889571 C1236.57330286 212.93576575 1236.05872928 195.62462736 1232 178 C1231.84007302 177.28771145 1231.68014604 176.57542291 1231.51537279 175.84154986 C1230.52936691 171.49622853 1229.36183204 167.240961 1228 163 C1227.7426709 162.19804199 1227.4853418 161.39608398 1227.22021484 160.56982422 C1216.94675834 129.25057428 1199.63101185 102.74468861 1177 79 C1176.20819336 78.1651709 1176.20819336 78.1651709 1175.40039062 77.31347656 C1167.8144701 69.36258178 1159.91491673 62.4200305 1151 56 C1149.96230469 55.24074219 1148.92460938 54.48148438 1147.85546875 53.69921875 C1114.72890386 30.04905713 1076.18121491 16.82361185 1035.4471283 16.86298561 C1033.99286414 16.86072501 1032.5386006 16.85803217 1031.08433795 16.85494977 C1027.09761506 16.8477588 1023.11091106 16.84672047 1019.12418257 16.846727 C1014.7829861 16.84565283 1010.44179785 16.83885618 1006.10060596 16.8328203 C997.49441998 16.82177235 988.88823807 16.81610296 980.28204625 16.81211142 C969.97130694 16.80709235 959.66057549 16.7963633 949.34984083 16.78562968 C923.24536228 16.75881184 897.14088002 16.74374817 871.03639174 16.73028857 C863.96304402 16.72661661 856.88969652 16.72261384 849.81634903 16.7185359 C805.88315784 16.69327323 761.94996626 16.6712324 718.01676941 16.65880775 C707.8425598 16.65588659 697.66835021 16.65291903 687.49414062 16.64990234 C686.23016658 16.64953143 684.96619253 16.64916053 683.66391625 16.64877838 C642.69959475 16.63662777 601.73531627 16.60569018 560.77101497 16.56398082 C518.63334563 16.52115521 476.495699 16.49456196 434.3580073 16.48933304 C428.40136072 16.48859265 422.44471417 16.48768198 416.48806763 16.48667526 C415.31582164 16.48648465 414.14357566 16.48629403 412.93580707 16.48609764 C394.10422993 16.48259013 375.27270684 16.46232042 356.44114952 16.43587863 C337.49594062 16.4096793 318.5507939 16.40202968 299.60556948 16.41297992 C288.36443368 16.41893751 277.12350945 16.41114651 265.88240584 16.38314908 C258.35531577 16.36579689 250.82836869 16.36693008 243.30127529 16.38251677 C239.02436373 16.39086422 234.74785356 16.39174299 230.47098053 16.36990531 C205.92590826 16.25219205 182.22600828 17.94462998 158.875 26.3125 Z " fill="#FDFBFB" transform="translate(0,0)"/>
<path d="M0 0 C27.39 0 54.78 0 83 0 C83.33 66.66 83.66 133.32 84 202 C88.62 195.73 93.24 189.46 98 183 C100.67685 179.46959287 103.35831196 175.94646669 106.0625 172.4375 C111.59515714 165.21988203 116.98769194 157.92020096 122.27978516 150.52490234 C126.42588422 144.74855969 130.71444273 139.09462619 135.05541992 133.46386719 C139.10951507 128.19457692 143.07037961 122.86262269 147 117.5 C152.5936 109.86996301 158.29871502 102.33401677 164.0625 94.83203125 C166.50251699 91.65518515 168.91555952 88.45953962 171.3125 85.25 C174.71691717 80.69207152 178.16114054 76.16619047 181.61645508 71.64672852 C187.52379286 63.91906997 193.38173933 56.16300604 199.125 48.3125 C204.20143551 41.37559074 209.41610545 34.56487276 214.72412109 27.80395508 C219.8061767 21.30750642 224.70439491 14.68359576 229.55859375 8.015625 C230.11160156 7.25765625 230.66460938 6.4996875 231.234375 5.71875 C231.96479004 4.71231445 231.96479004 4.71231445 232.70996094 3.68554688 C234 2 234 2 236 0 C239.07387669 -0.18845127 242.05704849 -0.25161751 245.13134766 -0.22705078 C246.07773605 -0.22734283 247.02412445 -0.22763489 247.99919128 -0.22793579 C251.13757391 -0.2265388 254.27572118 -0.21096024 257.4140625 -0.1953125 C259.5859667 -0.19158368 261.75787257 -0.18873609 263.92977905 -0.18673706 C269.65418112 -0.17909027 275.37848216 -0.15943281 281.10284424 -0.1373291 C286.94094475 -0.11689317 292.77906155 -0.10774017 298.6171875 -0.09765625 C310.07816946 -0.0761879 321.53907634 -0.04203937 333 0 C331.63895311 2.78813052 330.21220288 5.19541637 328.3125 7.65234375 C327.78374268 8.33973633 327.25498535 9.02712891 326.71020508 9.73535156 C326.1458374 10.46206055 325.58146973 11.18876953 325 11.9375 C324.41694092 12.69385742 323.83388184 13.45021484 323.2331543 14.22949219 C322.0479344 15.76653116 320.86133815 17.30250984 319.67333984 18.83740234 C317.78358501 21.27969127 315.90151207 23.72778531 314.02075195 26.17700195 C312.01629591 28.78656152 310.00753644 31.39280982 308 34 C307.13529427 35.12490593 306.27071316 36.24990765 305.40625 37.375 C304.97207764 37.93993164 304.53790527 38.50486328 304.09057617 39.08691406 C302.90012019 40.63598496 301.70981954 42.18517524 300.51953125 43.734375 C298.58518173 46.2471736 296.63739317 48.74924755 294.6875 51.25 C290.81748335 56.22223329 287.00037293 61.23388816 283.1875 66.25 C276.39977927 75.16931141 269.57962372 84.06228097 262.734375 92.9375 C257.46702162 99.77459445 252.22808691 106.63282406 247 113.5 C241.02279512 121.35115439 235.02525541 129.18567558 229 137 C227.33275452 139.16622158 225.66638661 141.33311768 224 143.5 C223.16668238 144.58334542 222.33334908 145.66667878 221.5 146.75 C221.0875 147.28625 220.675 147.8225 220.25 148.375 C206.5 166.25 206.5 166.25 205.24804688 167.87719727 C204.42078274 168.9528672 203.59395457 170.02887257 202.76757812 171.10522461 C200.59497367 173.93381489 198.41350081 176.75495492 196.21875 179.56640625 C195.76371094 180.15164063 195.30867187 180.736875 194.83984375 181.33984375 C193.97023967 182.45790614 193.09799383 183.57392069 192.22265625 184.6875 C190.15789961 187.34798971 188.36223228 189.91276706 187 193 C187.61875 193.83917969 187.61875 193.83917969 188.25 194.6953125 C192.02302463 199.93375294 195.37677416 205.27995523 198.52758789 210.9128418 C201.86193744 216.83753829 205.39221981 222.63711661 208.9375 228.4375 C209.5469043 229.43483154 210.15630859 230.43216309 210.78417969 231.4597168 C211.97874559 233.41444642 213.17340429 235.36911933 214.36816406 237.32373047 C217.19866831 241.96585906 219.99286729 246.62930848 222.78320312 251.2956543 C224.55428386 254.25666076 226.3297917 257.2149866 228.10682678 260.17242432 C233.11888171 268.51575505 238.09686163 276.87898167 243.0625 285.25 C243.89370456 286.65080517 244.72492227 288.05160254 245.55615234 289.45239258 C247.23672912 292.28468947 248.91703439 295.11714721 250.59716797 297.94970703 C252.11643672 300.510929 253.63621149 303.07184891 255.15673828 305.63232422 C262.29967166 317.66063319 269.41888972 329.70197102 276.48181152 341.77740479 C282.65731229 352.33532773 288.88665296 362.8574019 295.19555664 373.33642578 C300.74255289 382.55398198 306.23408142 391.80383695 311.71990967 401.05786133 C317.11692477 410.16086836 322.54227788 419.24571879 328 428.3125 C332.530184 435.84564918 337.02241434 443.39873276 341.4375 451 C342.13842773 452.20329956 342.13842773 452.20329956 342.85351562 453.4309082 C346 458.87725934 346 458.87725934 346 460 C314.32 460 282.64 460 250 460 C247.03 454.72 244.06 449.44 241 444 C238.35500534 439.56756755 235.69601085 435.15080307 233 430.75 C232.2659844 429.54705291 231.53226841 428.34392295 230.79882812 427.140625 C229.28499414 424.65750516 227.76991556 422.17515167 226.25390625 419.69335938 C223.00961287 414.38000846 219.78125666 409.05699117 216.55224609 403.73434448 C214.7958763 400.83944159 213.03855489 397.94511656 211.28125 395.05078125 C210.93223633 394.47590469 210.58322266 393.90102814 210.22363281 393.30873108 C208.01897323 389.67754009 205.81341963 386.04689345 203.60731506 382.4165802 C201.73795294 379.34037631 199.86889315 376.26398882 198 373.1875 C197.4592131 372.29730667 197.4592131 372.29730667 196.90750122 371.38912964 C192.29619927 363.7971621 187.69903237 356.19728189 183.15234375 348.56640625 C180.88194714 344.78086505 178.55739813 341.02867388 176.24107361 337.27113342 C171.93424687 330.27884528 167.68282489 323.25303735 163.42724609 316.22949219 C159.6470492 309.99173676 155.85837586 303.75991404 152.03125 297.55078125 C147.65438234 290.44969078 143.32522014 283.32010667 139 276.1875 C138.21748531 274.89776377 137.43493339 273.60805013 136.65234375 272.31835938 C134.76780233 269.21249838 132.88375631 266.10633725 131 263 C127.69510096 266.27281596 124.61138887 269.56871981 121.6875 273.1875 C120.90503906 274.15429688 120.12257813 275.12109375 119.31640625 276.1171875 C118.55199219 277.06851562 117.78757812 278.01984375 117 279 C116.02353516 280.21042969 116.02353516 280.21042969 115.02734375 281.4453125 C106.06014816 292.60367087 97.27548193 303.90772122 88.50732422 315.22265625 C87.9351416 315.96 87.36295898 316.69734375 86.7734375 317.45703125 C86.26216309 318.11678955 85.75088867 318.77654785 85.22412109 319.45629883 C84 321 84 321 83 322 C82.89139635 323.79657063 82.85312158 325.59741757 82.84178162 327.39723206 C82.8319928 328.56817413 82.82220398 329.73911621 82.81211853 330.94554138 C82.80636307 332.24169876 82.8006076 333.53785614 82.79467773 334.87329102 C82.7851044 336.24288228 82.77509465 337.61247055 82.76467896 338.98205566 C82.73756469 342.7111973 82.71659057 346.44035168 82.69667697 350.16953778 C82.67485749 354.06266957 82.64744911 357.95576179 82.62062073 361.84886169 C82.57063906 369.22595277 82.52572061 376.60306574 82.48259836 383.98019975 C82.42405713 393.94542632 82.35774097 403.9106009 82.29184818 413.87578106 C82.18818789 429.58381905 82.09495571 445.29190139 82 461 C54.94 461 27.88 461 0 461 C0 308.87 0 156.74 0 0 Z " fill="#FDFBFB" transform="translate(310,401)"/>
<path d="M0 0 C32.62754526 -0.1209091 32.62754526 -0.1209091 46.3984375 -0.14648438 C55.87179489 -0.16422058 65.34507169 -0.18496373 74.81835938 -0.22631836 C81.72058163 -0.25643464 88.62273791 -0.27562511 95.52502406 -0.28226548 C99.172033 -0.28614056 102.81885338 -0.2950986 106.46580124 -0.31719017 C134.45348207 -0.47984546 159.72700979 0.81852894 182 20 C196.7175495 36.73365217 198.04370456 53.65817462 197 75 C195.60942826 89.80925315 187.56439619 101.13120192 177 111 C173.82794503 113.44121351 170.60085863 115.26489831 167 117 C165.99839844 117.51046875 164.99679687 118.0209375 163.96484375 118.546875 C144.88178683 127.56389839 124.83152049 127.57357155 104.11555195 127.40557575 C100.44146643 127.38017358 96.76736047 127.37819013 93.09320068 127.37347412 C86.16992086 127.3611562 79.24690071 127.32849024 72.32373405 127.28807616 C62.94428856 127.23453929 53.56476954 127.21332235 44.18520927 127.19006729 C29.45661255 127.1527173 14.72856319 127.07295381 0 127 C0 85.09 0 43.18 0 0 Z " fill="#DD101E" transform="translate(746,664)"/>
<path d="M0 0 C30.18522812 -0.16065467 30.18522812 -0.16065467 45.22695541 -0.20101547 C53.32229899 -0.223076 61.41747551 -0.25096439 69.51269531 -0.30175781 C75.92784613 -0.34199 82.34287017 -0.36751781 88.75814366 -0.37635398 C92.14603419 -0.38150832 95.53327864 -0.39556231 98.92110443 -0.42292023 C123.68772803 -0.61476635 149.11338737 0.22338478 167.8828125 18.58203125 C173.75592903 25.28952043 177.70484983 32.41169614 180 41 C180.34675781 42.05832031 180.69351563 43.11664062 181.05078125 44.20703125 C184.41094863 57.63387293 182.62626036 73.84829368 176.38671875 86.19140625 C174.71405848 88.91736035 172.94256062 91.46103918 171 94 C170.5153125 94.66515625 170.030625 95.3303125 169.53125 96.015625 C159.5352021 108.78835287 142.42752167 113.92307278 127 116 C122.6944748 116.25507218 118.40505302 116.25405952 114.09301758 116.22705078 C112.85270782 116.22734283 111.61239807 116.22763489 110.33450317 116.22793579 C106.96946038 116.22679011 103.60467013 116.21683517 100.23967195 116.20278788 C96.70964967 116.1901929 93.17962319 116.18910317 89.64958191 116.18673706 C82.98108975 116.18054784 76.31266403 116.16417206 69.64420098 116.14403808 C60.62170685 116.11739426 51.59919426 116.10668574 42.57667065 116.09503365 C28.38439745 116.0762893 14.19226435 116.03642674 0 116 C0 77.72 0 39.44 0 0 Z " fill="#DD101D" transform="translate(746,477)"/>
<path d="M0 0 C0.95299157 -0.00224729 1.90598314 -0.00449459 2.88785324 -0.00680998 C4.44923306 -0.00286946 4.44923306 -0.00286946 6.04215592 0.00115067 C7.15718665 -0.00000318 8.27221739 -0.00115702 9.42103693 -0.00234583 C13.18398527 -0.00500769 16.94689143 -0.00049381 20.70983762 0.00394398 C23.42414727 0.00406466 26.13845568 0.00267542 28.85276496 0.00135481 C34.7678395 -0.00072018 40.68290398 0.00092699 46.59797734 0.00499302 C55.39350675 0.01102231 64.18902981 0.01132936 72.98456091 0.01045103 C87.77926782 0.00913634 102.57397027 0.01248155 117.36867589 0.01846844 C132.02054048 0.02438235 146.67240322 0.02823376 161.324269 0.02932125 C162.6899982 0.02942436 162.6899982 0.02942436 164.08331789 0.02952956 C168.70708261 0.02986788 173.33084732 0.03016927 177.95461204 0.03045643 C210.71780434 0.0325577 243.48099422 0.03929745 276.24418515 0.04875904 C308.07621627 0.05794113 339.90824672 0.06502589 371.7402789 0.06926686 C372.721216 0.06939838 373.70215311 0.06952991 374.71281558 0.06966542 C384.56365122 0.07098392 394.41448687 0.07225974 404.26532253 0.07350428 C424.33320251 0.0760406 444.40108245 0.07886185 464.46896237 0.08185536 C465.39168214 0.08199265 466.31440192 0.08212994 467.26508289 0.08227139 C528.89882437 0.09147444 590.5325645 0.10731991 652.16630429 0.1241985 C652.16630429 0.4541985 652.16630429 0.7841985 652.16630429 1.1241985 C651.31383975 1.12526671 651.31383975 1.12526671 650.4441537 1.12635651 C588.60075005 1.20388724 526.75734802 1.2826461 464.91395444 1.3678661 C463.52930147 1.36977362 463.52930147 1.36977362 462.11667572 1.37171968 C442.05746614 1.39936098 421.99825687 1.42722396 401.93904791 1.45531544 C392.10269072 1.4690892 382.26633346 1.48281395 372.42997617 1.49651295 C370.9616855 1.49855907 370.9616855 1.49855907 369.46373239 1.50064654 C337.70902997 1.54487508 305.95432437 1.5858645 274.19961553 1.62518262 C241.58040123 1.66558821 208.96119288 1.70924475 176.34198851 1.75701961 C171.73975014 1.76375863 167.13751171 1.77046031 162.53527325 1.77713925 C161.62944454 1.77845497 160.72361582 1.7797707 159.79033774 1.7811263 C145.18119732 1.80225005 130.57205464 1.81992436 115.96290824 1.83632381 C101.29263058 1.85286494 86.62236141 1.87300415 71.95209379 1.89686691 C63.22534354 1.91095117 54.49859994 1.92222599 45.77184135 1.92956287 C39.9522743 1.93472664 34.13271992 1.94346589 28.3131624 1.95518623 C24.99093029 1.96177252 21.66872003 1.96619259 18.34648098 1.96736049 C14.77822088 1.96885591 11.21002511 1.97638169 7.64177769 1.9855333 C6.07338934 1.98399929 6.07338934 1.98399929 4.47331637 1.9824343 C3.52993352 1.98611501 2.58655066 1.98979572 1.61458045 1.99358797 C0.79755394 1.99467984 -0.01947257 1.9957717 -0.86125746 1.99689665 C-2.91095445 2.00087858 -2.91095445 2.00087858 -4.83369571 3.1241985 C-6.510243 2.84477395 -8.17977725 2.51591603 -9.83369571 2.1241985 C-9.83369571 1.7941985 -9.83369571 1.4641985 -9.83369571 1.1241985 C-6.49691759 0.37689784 -3.416982 -0.00065073 0 0 Z " fill="#DD2029" transform="translate(310.83369570970535,255.8758015036583)"/>
<path d="M0 0 C40.26 0 80.52 0 122 0 C119 3 119 3 116.89732838 3.36914349 C116.08154159 3.36637811 115.2657548 3.36361273 114.42524719 3.36076355 C113.4871521 3.36488754 112.54905701 3.36901154 111.58253479 3.3732605 C110.55538864 3.36247467 109.52824249 3.35168884 108.4699707 3.34057617 C107.38688629 3.34101425 106.30380188 3.34145233 105.18789673 3.34190369 C101.60034287 3.33981013 98.01325368 3.31645174 94.42578125 3.29296875 C91.94142411 3.28737483 89.45706366 3.28310377 86.97270203 3.28010559 C81.09721205 3.26981327 75.22189421 3.24615816 69.34647483 3.21605712 C62.00119249 3.17924214 54.6559004 3.16312394 47.31054688 3.14648438 C34.2069462 3.11429146 21.10348368 3.06365039 8 3 C8 2.67 8 2.34 8 2 C5.36 1.67 2.72 1.34 0 1 C0 0.67 0 0.34 0 0 Z " fill="#FCEBEC" transform="translate(746,791)"/>
<path d="M0 0 C0.96061844 0.00007553 1.92123688 0.00015106 2.91096497 0.00022888 C4.44716743 0.00797081 4.44716743 0.00797081 6.0144043 0.01586914 C7.07273972 0.01728409 8.13107513 0.01869904 9.22148132 0.02015686 C12.59389093 0.0257438 15.96623358 0.03829395 19.33862305 0.05102539 C21.62833563 0.05604208 23.91804925 0.06060469 26.20776367 0.06469727 C31.81390622 0.07570896 37.42000985 0.09243413 43.02612305 0.11352539 C43.02612305 0.44352539 43.02612305 0.77352539 43.02612305 1.11352539 C42.16834763 1.12898659 42.16834763 1.12898659 41.29324341 1.14476013 C35.35626519 1.25270854 29.41944234 1.36731581 23.48266602 1.48583984 C21.26525108 1.52922617 19.04780193 1.57089847 16.83032227 1.61083984 C13.64808832 1.66845293 10.46602721 1.73217303 7.28393555 1.79711914 C6.28806427 1.81383163 5.29219299 1.83054413 4.2661438 1.84776306 C3.34534027 1.86770828 2.42453674 1.8876535 1.47583008 1.90820312 C0.25671432 1.93151955 0.25671432 1.93151955 -0.98703003 1.95530701 C-3.04825962 1.99454953 -3.04825962 1.99454953 -4.97387695 3.11352539 C-6.65042424 2.83410084 -8.3199585 2.50524292 -9.97387695 2.11352539 C-9.97387695 1.78352539 -9.97387695 1.45352539 -9.97387695 1.11352539 C-6.58727503 0.3509988 -3.46877124 -0.00915243 0 0 Z " fill="#E03139" transform="translate(310.973876953125,255.886474609375)"/>
<path d="M0 0 C0.66 0 1.32 0 2 0 C0.64147869 3.08693704 -0.84510953 5.08641734 -3.375 7.3125 C-3.96023438 7.84488281 -4.54546875 8.37726562 -5.1484375 8.92578125 C-7 10 -7 10 -9.2265625 9.66796875 C-9.81179688 9.44753906 -10.39703125 9.22710938 -11 9 C-9.93458984 8.15115234 -9.93458984 8.15115234 -8.84765625 7.28515625 C-7.92855469 6.55167969 -7.00945313 5.81820312 -6.0625 5.0625 C-5.14597656 4.33160156 -4.22945312 3.60070312 -3.28515625 2.84765625 C-1.59148731 1.48061289 -1.59148731 1.48061289 0 0 Z " fill="#E1232C" transform="translate(987,821)"/>
<path d="M0 0 C0.5625 1.9375 0.5625 1.9375 1 4 C0.67 4.33 0.34 4.66 0 5 C-0.15686249 6.55948542 -0.25076639 8.12542668 -0.31640625 9.69140625 C-0.35830078 10.63564453 -0.40019531 11.57988281 -0.44335938 12.55273438 C-0.48267578 13.54595703 -0.52199219 14.53917969 -0.5625 15.5625 C-0.60568359 16.55958984 -0.64886719 17.55667969 -0.69335938 18.58398438 C-0.79980298 21.0558415 -0.90181928 23.5278031 -1 26 C-1.33 26 -1.66 26 -2 26 C-2.25528048 22.41802596 -2.47465688 18.83472621 -2.6875 15.25 C-2.76033203 14.23421875 -2.83316406 13.2184375 -2.90820312 12.171875 C-2.96298828 11.1921875 -3.01777344 10.2125 -3.07421875 9.203125 C-3.13182373 8.30239258 -3.18942871 7.40166016 -3.2487793 6.47363281 C-2.94943764 3.49725434 -1.965641 2.20151792 0 0 Z " fill="#DE1A28" transform="translate(396,718)"/>
<path d="M0 0 C0.66 0.33 1.32 0.66 2 1 C-1.3 4.63 -4.6 8.26 -8 12 C-8.99 11.67 -9.98 11.34 -11 11 C-7.37 7.37 -3.74 3.74 0 0 Z " fill="#FAE0E3" transform="translate(1179,1169)"/>
<path d="M0 0 C0.66 0.66 1.32 1.32 2 2 C-2.455 4.97 -2.455 4.97 -7 8 C-7.66 7.34 -8.32 6.68 -9 6 C-6.03 4.02 -3.06 2.04 0 0 Z " fill="#E51E29" transform="translate(113,49)"/>
<path d="M0 0 C0.99 0.33 1.98 0.66 3 1 C1.71937515 2.7074998 0.38232443 4.37373596 -1 6 C-1.66 6 -2.32 6 -3 6 C-3 6.99 -3 7.98 -3 9 C-3.99 9 -4.98 9 -6 9 C-4.47291037 5.56404834 -2.40072955 2.88087546 0 0 Z " fill="#E2232E" transform="translate(543,532)"/>
<path d="M0 0 C0.66 0.33 1.32 0.66 2 1 C-0.31 3.64 -2.62 6.28 -5 9 C-5.99 8.67 -6.98 8.34 -8 8 C-5.36 5.36 -2.72 2.72 0 0 Z " fill="#DF1F29" transform="translate(280,268)"/>
</svg>
